<svg width="138" height="24" viewBox="0 0 138 24" fill="none" xmlns="http://www.w3.org/2000/svg">
<g clip-path="url(#clip0_4543_31)">
<mask id="mask0_4543_31" style="mask-type:luminance" maskUnits="userSpaceOnUse" x="0" y="0" width="138" height="24">
<path d="M0.120003 0H137.88V24H0.120003V0Z" fill="white"/>
</mask>
<g mask="url(#mask0_4543_31)">
<path d="M41.8373 14.8901C41.8373 16.7119 40.141 18.0314 37.7534 18.0314H32.1619V6.7224H37.565C39.8897 6.7224 41.5231 7.9788 41.5231 9.738C41.5231 10.9318 40.8948 11.6856 39.9526 12.1255C40.9577 12.5023 41.8373 13.5079 41.8373 14.8901ZM34.6121 8.79552V11.2459H37.5022C38.3818 11.2459 38.9472 10.7431 38.9472 10.0522C38.9472 9.3612 38.3189 8.79552 37.5022 8.79552H34.6121ZM37.7534 15.9578C38.6959 15.9578 39.3871 15.3924 39.3871 14.5757C39.3871 13.759 38.7588 13.1933 37.7534 13.1933H34.6121V15.9581L37.7534 15.9578ZM51.073 17.9688L47.1778 13.5079H46.5494V17.9686H44.0362V6.72264H46.5494V11.0575H47.1778L50.9472 6.72264H53.9002L49.188 12.1258L54.3398 17.9686L51.073 17.9688ZM54.3401 12.3768C54.3401 8.9844 56.8531 6.534 60.3713 6.534C63.8897 6.534 66.4027 8.9844 66.4027 12.377C66.4027 15.7697 63.8897 18.2198 60.3713 18.2198C56.8529 18.2198 54.3401 15.7694 54.3401 12.3768ZM63.7642 12.377C63.7642 10.241 62.3818 8.79624 60.3713 8.79624C58.3608 8.79624 56.9786 10.241 56.9786 12.377C56.9786 14.513 58.3608 15.9583 60.3713 15.9583C62.3818 15.9583 63.7642 14.5133 63.7642 12.377ZM76.0154 6.7224H78.5285V17.9688H76.0154V13.4448H70.9891V17.9683H68.4761V6.72264H70.9891V11.1833H76.0154V6.7224ZM83.9316 17.9688V8.98416H80.0362V6.7224H90.2772V8.9844H86.3818V17.9686L83.9316 17.9688ZM101.083 11.6858V17.9688H99.2614L98.7588 16.2096C98.1934 17.1521 96.9996 18.2201 95.1775 18.2201C92.9158 18.2201 91.2823 16.7124 91.2823 14.639C91.2823 12.5657 92.9158 11.1206 96.2458 11.1206H98.6959C98.5704 9.67584 97.8163 8.67024 96.4342 8.67024C95.3033 8.67024 94.5494 9.2988 94.1724 9.98976L91.9106 9.61296C92.4761 7.66512 94.4237 6.53424 96.5599 6.53424C99.3242 6.53424 101.083 8.41896 101.083 11.6858ZM98.633 13.0685H96.3084C94.4237 13.0685 93.7954 13.6966 93.7954 14.5133C93.7954 15.4558 94.5494 16.0841 95.8058 16.0841C97.4395 16.0841 98.633 14.8906 98.633 13.0685ZM110.759 17.9688L106.864 13.5079H106.235V17.9686H103.722V6.72264H106.235V11.0575H106.864L110.633 6.72264H113.586L108.874 12.1258L114.026 17.9686L110.759 17.9688ZM118.549 17.9688V8.98416H114.654V6.7224H124.895V8.9844H121V17.9686L118.549 17.9688ZM137.46 13.068H128.413C128.664 14.8272 129.921 15.9581 131.806 15.9581C133.125 15.9581 134.13 15.3926 134.696 14.5759L137.021 14.9527C136.204 17.089 134.005 18.2198 131.617 18.2198C128.225 18.2198 125.774 15.7697 125.774 12.377C125.774 8.9844 128.225 6.534 131.617 6.534C135.01 6.534 137.46 8.9844 137.46 12.2513C137.523 12.5657 137.46 12.8165 137.46 13.068ZM128.602 11.1206H134.822C134.382 9.73848 133.251 8.73336 131.68 8.73336C130.172 8.67048 128.979 9.6756 128.602 11.1206Z" fill="white"/>
<path d="M0.120003 11.52C0.120003 6.08952 0.120003 3.37416 1.8072 1.6872C3.49392 0 6.20928 0 11.64 0H12.6C18.0305 0 20.7458 0 22.4328 1.6872C24.12 3.37416 24.12 6.08952 24.12 11.52V12.48C24.12 17.9105 24.12 20.6258 22.4328 22.3128C20.7461 24 18.0307 24 12.6 24H11.64C6.20952 24 3.49416 24 1.8072 22.3128C0.120003 20.6261 0.120003 17.9107 0.120003 12.48V11.52Z" fill="#0077FF"/>
<path d="M12.8899 17.2901C7.42009 17.2901 4.30009 13.5401 4.17001 7.30011H6.91009C7.00009 11.88 9.01993 13.8202 10.62 14.22V7.30011H13.2V11.25C14.7802 11.0801 16.44 9.28011 16.9999 7.30011H19.5799C19.1498 9.74019 17.3498 11.5402 16.0699 12.2801C17.3498 12.8801 19.4002 14.4502 20.1802 17.2901H17.34C16.7299 15.39 15.21 13.92 13.2 13.7201V17.2901H12.8899Z" fill="white"/>
</g>
</g>
<defs>
<clipPath id="clip0_4543_31">
<rect width="138" height="24" fill="white"/>
</clipPath>
</defs>
</svg>
